<svg xmlns="http://www.w3.org/2000/svg" width="35.861" height="43.711" viewBox="0 0 35.861 43.711">
    <g>
        <path fill="#c1c8d8" d="M36.353 39.129c5.736 0 10.4-5.952 10.4-13.268 0-6.973-4.278-11.843-10.4-11.843s-10.4 4.87-10.4 11.843c-.003 7.316 4.663 13.268 10.4 13.268zm0-21.4c4.151 0 6.939 3.27 6.939 8.136 0 5.272-3.113 9.562-6.939 9.562s-6.939-4.29-6.939-9.562c0-4.871 2.786-8.141 6.939-8.141zm1.064 22.64h-2.128c-10.088 0-16.866 6.235-16.866 15.513a1.736 1.736 0 1 0 3.464 0c0-8.716 7.218-11.807 13.4-11.807h2.129c6.182 0 13.4 3.092 13.4 11.807a1.736 1.736 0 1 0 3.464 0c.004-9.282-6.773-15.518-16.863-15.518z" transform="translate(-18.423 -14.018)"/>
    </g>
</svg>
